<?xml version="1.0" standalone="no"?>
<!DOCTYPE svg PUBLIC "-//W3C//DTD SVG 20010904//EN"
 "http://www.w3.org/TR/2001/REC-SVG-20010904/DTD/svg10.dtd">
<svg version="1.0" xmlns="http://www.w3.org/2000/svg"
 width="771.000000pt" height="771.000000pt" viewBox="0 0 771.000000 771.000000"
 preserveAspectRatio="xMidYMid meet">
<metadata>
Created by potrace 1.14, written by Peter Selinger 2001-2017
</metadata>
<g transform="translate(0.000000,771.000000) scale(0.100000,-0.100000)"
fill="#000000" stroke="none">
<path d="M3648 7596 c-12 -12 -18 -13 -21 -3 -4 8 -6 9 -6 0 -1 -8 -10 -9 -30
-3 -21 6 -33 4 -46 -9 -10 -9 -15 -11 -11 -4 11 19 -12 25 -23 6 -8 -14 -10
-15 -11 -3 0 12 -2 12 -8 2 -7 -10 -15 -10 -36 -2 -20 7 -25 7 -20 -2 5 -8 2
-9 -9 -5 -9 3 -19 1 -23 -5 -4 -7 -9 -6 -15 3 -6 10 -9 10 -9 2 0 -7 -7 -10
-17 -6 -10 4 -14 2 -10 -4 5 -7 0 -9 -13 -6 -11 3 -17 10 -14 17 3 6 0 4 -8
-5 -7 -9 -19 -14 -27 -11 -10 3 -11 0 -5 -9 7 -12 5 -12 -9 -1 -18 15 -41 7
-30 -11 3 -7 -4 -3 -17 8 -13 11 -20 14 -16 7 6 -10 1 -12 -23 -9 -17 3 -34 0
-37 -5 -4 -6 -2 -8 4 -4 6 3 13 2 17 -3 6 -10 -16 -8 -46 4 -9 3 -23 0 -30 -7
-8 -7 -24 -13 -37 -12 -17 1 -22 -3 -17 -15 5 -13 4 -13 -6 -4 -10 10 -16 10
-29 -2 -14 -13 -17 -13 -17 0 0 8 5 11 10 8 6 -4 7 -1 2 7 -7 11 -10 10 -19
-1 -6 -8 -17 -14 -23 -15 -30 -2 -34 -5 -27 -16 5 -10 4 -10 -6 -1 -11 10 -16
9 -27 -5 -8 -9 -12 -11 -8 -4 3 6 2 12 -4 12 -5 0 -12 -6 -14 -12 -4 -9 -6 -8
-6 2 -1 11 -8 8 -22 -10 -11 -14 -18 -19 -14 -12 8 16 -31 17 -41 0 -5 -7 -3
-8 6 -3 9 5 11 4 6 -4 -6 -9 -11 -9 -22 0 -11 9 -14 9 -14 0 0 -7 -4 -9 -10
-6 -5 3 -10 1 -10 -6 0 -8 -5 -7 -17 2 -9 8 -14 9 -11 4 4 -6 -3 -17 -15 -25
-20 -12 -21 -12 -8 4 12 14 12 16 -3 10 -9 -3 -16 -11 -16 -18 0 -6 -5 -4 -10
4 -7 11 -10 11 -10 2 0 -7 -4 -11 -9 -7 -6 3 -14 -3 -20 -12 -8 -14 -11 -15
-11 -3 0 11 -3 10 -11 -4 -9 -15 -13 -16 -20 -5 -7 11 -9 9 -9 -6 0 -17 -2
-17 -10 -5 -9 13 -10 13 -10 0 0 -13 -1 -13 -10 0 -8 13 -10 12 -10 -4 0 -14
-3 -16 -14 -7 -10 9 -16 8 -26 -4 -7 -8 -19 -15 -27 -15 -8 0 -11 -4 -8 -10 4
-6 -1 -7 -11 -3 -13 5 -15 3 -9 -8 7 -12 6 -12 -7 -1 -13 10 -18 10 -24 1 -5
-8 -3 -10 7 -4 8 5 11 5 7 0 -5 -5 -22 -10 -40 -12 -17 -2 -36 -8 -43 -13 -7
-5 -15 -7 -19 -3 -4 4 -4 0 0 -10 7 -20 -6 -23 -24 -5 -9 9 -12 8 -12 -5 0 -9
-3 -16 -7 -15 -5 1 -18 -3 -29 -10 -12 -6 -25 -8 -29 -4 -5 4 -5 -2 -1 -12 5
-16 4 -17 -9 -6 -14 11 -19 7 -16 -12 0 -4 -7 -4 -16 -1 -10 4 -14 2 -10 -4 4
-6 -1 -10 -11 -9 -10 0 -16 -5 -14 -13 2 -11 0 -12 -11 -2 -12 9 -16 8 -21 -4
-4 -11 -12 -14 -27 -10 -13 4 -19 3 -16 -2 3 -5 -12 -17 -33 -27 -23 -10 -40
-25 -41 -34 0 -14 -2 -13 -9 3 -7 18 -8 19 -15 3 -4 -10 -14 -18 -21 -18 -8 0
-17 -7 -21 -16 -3 -8 -12 -13 -19 -10 -8 3 -14 1 -14 -4 0 -6 -7 -10 -15 -10
-8 0 -15 -7 -15 -16 0 -9 -6 -14 -12 -12 -7 3 -19 -3 -28 -12 -8 -9 -13 -11
-10 -5 3 6 -2 3 -11 -7 -9 -9 -19 -14 -23 -11 -3 3 -8 -2 -12 -11 -3 -9 -10
-14 -14 -11 -4 3 -11 -2 -14 -11 -3 -8 -10 -12 -16 -9 -5 3 -10 1 -10 -4 0 -6
-3 -10 -7 -9 -14 5 -53 -28 -45 -37 4 -4 -1 -5 -11 -2 -11 4 -16 3 -12 -3 3
-6 -1 -10 -10 -10 -9 0 -13 -4 -10 -10 3 -5 -3 -10 -15 -10 -12 0 -19 -4 -16
-9 3 -5 -3 -11 -14 -14 -11 -3 -19 -11 -18 -19 2 -7 -3 -12 -9 -10 -7 1 -13
-2 -13 -8 0 -6 -3 -9 -7 -9 -17 3 -33 -1 -32 -8 3 -20 -2 -26 -11 -13 -9 13
-10 13 -10 0 0 -8 -8 -24 -17 -35 l-16 -20 7 20 c4 13 -6 6 -27 -17 -19 -21
-40 -38 -47 -38 -7 0 -10 -3 -7 -7 4 -3 -3 -11 -16 -18 -12 -6 -21 -17 -19
-23 1 -7 -4 -11 -10 -10 -7 2 -12 -5 -12 -14 1 -10 -3 -15 -8 -12 -5 3 -16 -2
-24 -12 -9 -11 -13 -13 -9 -6 3 6 1 12 -6 12 -6 0 -9 -8 -6 -20 3 -11 1 -18
-4 -15 -10 7 -89 -68 -89 -85 0 -6 -4 -8 -10 -5 -5 3 -10 1 -10 -5 0 -6 -5 -8
-12 -4 -8 5 -9 2 -5 -9 4 -11 -1 -22 -13 -29 -11 -7 -20 -19 -20 -26 0 -7 -4
-10 -10 -7 -5 3 -10 1 -10 -4 0 -6 -8 -11 -17 -11 -14 0 -15 -2 -5 -9 10 -6 9
-10 -7 -14 -12 -3 -21 -13 -21 -22 0 -9 -5 -13 -10 -10 -6 3 -10 -3 -10 -15 0
-12 -3 -19 -7 -17 -5 2 -18 -6 -31 -19 -12 -13 -19 -24 -15 -24 4 0 0 -5 -9
-11 -10 -5 -18 -16 -18 -24 0 -8 -9 -19 -21 -25 -11 -7 -18 -14 -16 -17 3 -2
-7 -17 -22 -31 -16 -15 -26 -33 -24 -39 3 -7 -2 -13 -11 -13 -9 0 -16 -7 -16
-15 0 -9 -7 -18 -15 -21 -8 -4 -13 -10 -10 -14 3 -4 -2 -10 -10 -14 -8 -3 -15
-12 -15 -21 0 -8 -4 -15 -10 -15 -5 0 -10 -5 -10 -11 0 -7 -8 -18 -17 -25 -17
-13 -17 -14 2 -9 16 5 16 3 -3 -6 -12 -7 -23 -16 -23 -21 -1 -4 -2 -12 -3 -17
0 -5 -5 -13 -10 -18 -5 -5 -6 -2 -1 6 6 10 4 12 -4 6 -7 -4 -11 -15 -8 -25 4
-17 -26 -54 -36 -43 -8 7 -19 -36 -12 -47 4 -6 1 -9 -7 -8 -7 2 -12 -5 -12
-14 1 -10 -3 -18 -8 -18 -6 0 -8 -7 -4 -15 3 -8 1 -15 -4 -15 -6 0 -10 6 -10
13 0 8 -3 7 -10 -3 -6 -9 -5 -19 2 -28 9 -10 8 -12 -3 -10 -8 2 -13 -3 -11
-10 1 -7 -5 -15 -13 -18 -8 -3 -12 -10 -9 -15 3 -5 -2 -12 -10 -15 -9 -3 -16
-11 -16 -18 0 -6 -7 -24 -15 -39 -9 -19 -10 -25 -2 -21 7 4 2 -3 -10 -15 -25
-24 -31 -39 -10 -25 7 5 5 1 -6 -8 -10 -10 -15 -23 -11 -29 4 -7 3 -9 -3 -6
-6 4 -14 0 -17 -9 -4 -10 -2 -13 7 -8 9 6 9 5 0 -8 -7 -8 -9 -19 -5 -23 4 -5
1 -5 -7 0 -11 6 -13 3 -8 -14 3 -13 3 -21 0 -18 -3 3 -11 0 -18 -6 -10 -9 -10
-15 -1 -26 9 -12 8 -13 -3 -6 -11 6 -13 4 -8 -8 3 -9 1 -19 -5 -23 -7 -5 -8
-2 -3 7 5 8 4 11 -1 6 -5 -5 -9 -12 -10 -15 -7 -42 -19 -72 -28 -72 -6 0 -4
-5 4 -10 13 -8 12 -10 -2 -10 -10 0 -18 -5 -18 -11 0 -5 6 -7 13 -4 6 4 4 0
-5 -8 -20 -16 -25 -42 -6 -31 7 4 8 3 4 -4 -4 -7 -14 -12 -23 -12 -12 0 -13
-3 -4 -14 9 -11 8 -15 -6 -21 -17 -6 -17 -7 2 -21 l20 -16 -20 4 c-12 2 -19
-2 -18 -9 2 -7 -2 -13 -8 -13 -8 0 -8 -4 0 -14 9 -11 9 -16 0 -22 -8 -5 -10
-3 -4 7 5 8 5 11 0 7 -5 -5 -10 -22 -12 -40 -2 -18 -9 -36 -16 -40 -9 -6 -9
-8 1 -8 7 0 10 -5 7 -10 -4 -6 -12 -7 -18 -3 -7 4 -6 0 2 -10 7 -9 9 -17 3
-17 -5 0 -13 -7 -16 -16 -3 -8 -2 -12 4 -9 5 3 3 -6 -5 -21 -7 -15 -11 -33 -8
-42 4 -10 2 -13 -6 -8 -6 4 -11 4 -10 -1 1 -4 0 -10 -1 -13 -1 -3 -2 -24 -3
-48 -1 -24 -8 -47 -16 -51 -8 -5 -11 -16 -8 -25 4 -9 1 -16 -6 -16 -7 0 -8 -3
-2 -8 13 -9 19 -35 6 -28 -14 9 -21 -20 -8 -33 8 -8 7 -11 -3 -11 -7 0 -10 -3
-7 -7 4 -3 1 -13 -6 -21 -9 -13 -9 -14 1 -8 6 4 12 3 12 -3 0 -5 -4 -11 -8
-13 -5 -1 -12 -18 -15 -36 -4 -20 -3 -31 3 -27 6 3 7 -1 4 -9 -3 -9 -10 -13
-15 -10 -5 3 -9 0 -9 -5 0 -6 6 -11 13 -11 8 0 7 -4 -3 -10 -12 -8 -12 -10 -1
-10 11 0 11 -3 1 -15 -7 -9 -10 -18 -7 -22 4 -3 2 -13 -3 -22 -5 -10 -5 -23 0
-31 5 -8 2 -23 -8 -39 -10 -14 -12 -22 -6 -19 6 4 11 1 11 -7 0 -8 -4 -12 -9
-9 -4 3 -8 0 -8 -5 0 -6 6 -11 13 -11 8 0 8 -3 -2 -9 -15 -9 -22 -109 -9 -117
4 -3 5 -11 2 -19 -4 -8 -9 -13 -13 -10 -4 2 -8 -2 -8 -10 0 -8 5 -11 10 -8 6
4 7 1 2 -7 -12 -19 -13 -100 -2 -100 5 0 4 -7 -3 -15 -10 -12 -10 -15 0 -15
10 0 10 -3 0 -15 -10 -12 -10 -15 1 -15 11 0 11 -2 -1 -10 -10 -6 -11 -10 -2
-10 6 0 12 -5 12 -11 0 -5 -3 -8 -8 -6 -4 3 -7 -10 -7 -29 0 -19 4 -34 9 -34
5 0 3 -7 -5 -16 -10 -13 -10 -17 0 -24 10 -5 10 -9 2 -15 -9 -5 -9 -10 0 -21
9 -11 9 -17 -1 -29 -7 -8 -8 -15 -2 -15 5 0 12 -9 15 -20 3 -11 1 -18 -4 -14
-13 8 -11 -10 3 -24 9 -9 9 -12 0 -12 -10 0 -10 -5 -1 -21 6 -12 7 -19 1 -15
-6 4 -7 -6 -2 -29 4 -19 5 -36 2 -39 -3 -4 1 -6 9 -6 11 0 11 -2 -1 -10 -10
-6 -11 -10 -2 -10 6 0 12 -5 12 -11 0 -5 -4 -8 -8 -5 -4 2 -8 -4 -8 -14 0 -10
3 -17 6 -15 3 2 11 -5 18 -15 10 -16 9 -18 -4 -13 -14 5 -14 2 0 -30 9 -23 11
-39 5 -43 -6 -3 -3 -11 7 -18 12 -10 14 -15 5 -20 -9 -6 -9 -11 0 -22 9 -11 9
-14 -1 -14 -9 0 -7 -7 6 -22 10 -12 14 -18 7 -15 -8 5 -11 0 -10 -12 0 -11 5
-17 9 -15 4 3 8 -2 8 -11 0 -10 -5 -13 -12 -9 -7 4 -2 -9 10 -30 12 -20 18
-34 12 -31 -5 3 -10 2 -10 -4 0 -5 6 -12 13 -14 9 -4 9 -6 -1 -6 -10 -1 -9 -5
3 -17 13 -14 14 -19 4 -25 -10 -6 -10 -9 4 -14 12 -5 14 -12 8 -24 -7 -12 -4
-24 9 -41 13 -18 16 -28 8 -37 -7 -9 -7 -13 2 -13 7 0 10 -8 7 -20 -3 -10 -2
-19 2 -18 19 2 24 -3 11 -12 -13 -9 -13 -10 0 -10 13 0 13 -1 0 -10 -10 -6
-11 -10 -2 -10 6 0 12 -9 12 -21 0 -11 3 -18 8 -16 4 3 8 -6 9 -20 0 -14 7
-29 15 -34 10 -7 10 -9 -2 -9 -13 0 -13 -1 0 -10 8 -5 11 -10 5 -11 -5 0 -1
-4 10 -9 16 -7 17 -9 3 -9 -18 -1 -18 -33 0 -39 7 -2 12 -13 12 -23 0 -11 4
-18 8 -15 5 3 8 -9 7 -25 -1 -18 4 -33 11 -36 8 -3 11 -9 8 -14 -3 -5 1 -9 8
-9 9 0 9 -3 -2 -10 -11 -7 -11 -10 -2 -10 7 0 10 -4 7 -10 -3 -5 -1 -10 5 -10
6 0 8 -4 5 -10 -3 -5 -1 -10 5 -10 7 0 10 -7 6 -15 -3 -8 -2 -15 2 -15 4 0 8
-10 9 -22 1 -11 6 -24 12 -27 15 -10 32 -61 24 -74 -4 -6 -1 -8 8 -5 10 4 15
-2 17 -20 1 -14 11 -36 23 -48 11 -11 19 -25 18 -30 -3 -20 2 -28 9 -16 6 8 9
1 9 -20 0 -17 5 -34 11 -36 7 -2 12 -12 12 -22 0 -10 5 -22 12 -26 7 -5 8 -3
3 6 -5 8 -4 11 3 7 5 -4 8 -17 4 -29 -4 -17 -2 -20 13 -14 16 6 16 4 4 -11 -9
-11 -10 -14 -2 -9 7 4 13 4 14 -1 2 -28 9 -45 23 -59 9 -8 16 -21 16 -27 0 -7
4 -6 10 3 5 8 10 10 10 5 0 -6 -5 -16 -12 -23 -9 -9 -8 -12 5 -12 15 0 18 -5
17 -26 -1 -3 7 -13 18 -22 10 -9 13 -15 7 -12 -6 3 -3 -2 7 -11 9 -9 14 -19
11 -23 -4 -3 -1 -6 5 -6 7 0 12 -7 12 -15 0 -8 4 -15 9 -15 5 0 11 -9 14 -21
3 -12 10 -18 16 -15 6 4 8 -1 6 -12 -2 -10 5 -25 16 -33 10 -7 19 -20 19 -27
0 -9 6 -12 16 -8 14 5 15 4 5 -8 -9 -11 -9 -16 0 -22 8 -4 9 -3 5 4 -4 7 -5
12 -1 12 3 0 10 -12 15 -26 6 -15 14 -22 22 -18 6 4 8 3 4 -4 -3 -6 9 -25 26
-43 18 -18 33 -35 33 -38 0 -3 4 -5 8 -3 5 1 5 -3 1 -9 -3 -6 4 -21 17 -33 13
-12 29 -30 36 -41 6 -11 16 -19 23 -17 6 1 9 -2 5 -8 -3 -5 1 -13 9 -16 9 -3
14 -10 11 -14 -5 -8 24 -25 38 -21 5 1 5 -3 2 -10 -7 -10 28 -52 36 -44 2 1
11 -4 19 -13 13 -14 12 -15 -5 -8 -18 6 -17 5 3 -14 12 -12 26 -18 31 -15 5 3
13 0 17 -6 4 -8 3 -9 -4 -5 -17 10 -15 -1 4 -23 10 -11 23 -17 30 -14 9 3 11
-2 7 -19 -4 -18 -3 -20 6 -8 6 8 11 10 11 4 0 -6 16 -28 36 -50 20 -21 33 -33
29 -26 -6 11 -3 12 13 3 12 -6 24 -17 28 -24 5 -7 0 -6 -12 3 -18 14 -18 14
-5 -3 8 -10 20 -16 27 -13 8 3 11 0 7 -10 -3 -9 1 -14 12 -14 9 0 13 -5 10
-10 -3 -6 1 -10 9 -10 9 0 16 -5 16 -12 0 -6 3 -8 7 -5 3 4 11 -3 17 -15 6
-11 20 -26 31 -32 10 -6 25 -17 33 -24 7 -7 18 -9 24 -6 6 4 8 3 5 -3 -7 -11
28 -45 37 -36 3 4 6 -1 6 -10 0 -10 3 -16 8 -16 20 3 32 -3 32 -17 0 -8 4 -12
10 -9 5 3 10 1 10 -4 0 -6 6 -11 14 -11 8 0 16 -7 20 -15 3 -8 12 -15 20 -15
8 0 18 -5 22 -12 5 -7 2 -8 -7 -3 -8 5 -11 4 -6 -1 5 -5 12 -9 15 -9 4 0 13
-4 20 -8 6 -5 12 -5 12 -1 0 4 9 -5 20 -19 12 -14 27 -24 34 -21 7 3 16 -2 19
-10 3 -8 16 -20 28 -26 12 -7 19 -8 15 -2 -3 6 -1 14 5 18 7 4 9 3 5 -4 -7
-12 31 -52 51 -52 7 0 13 -5 13 -11 0 -5 4 -8 9 -4 5 3 17 -5 27 -17 9 -13 14
-16 11 -7 -3 9 0 16 8 16 7 0 12 -7 11 -16 -1 -9 8 -17 22 -19 12 -2 20 -8 17
-13 -4 -5 3 -9 14 -9 10 0 21 -4 23 -10 2 -5 13 -11 26 -13 13 -2 27 -9 32
-17 4 -7 13 -9 19 -6 6 4 11 2 11 -4 0 -7 7 -10 14 -7 11 4 13 1 9 -10 -4 -10
-2 -14 4 -10 6 4 16 0 23 -9 7 -8 19 -13 27 -10 7 3 13 2 13 -3 0 -5 11 -12
25 -15 14 -4 23 -11 20 -16 -9 -14 9 -12 23 2 9 9 12 9 12 0 0 -6 13 -18 30
-27 16 -9 30 -13 30 -9 0 4 7 1 15 -6 8 -6 20 -8 26 -4 7 4 9 3 6 -3 -4 -6 0
-14 9 -17 8 -3 12 -2 9 3 -3 5 -1 13 5 16 6 4 10 3 9 -2 -3 -18 1 -36 7 -30 4
3 16 1 28 -5 11 -7 25 -11 30 -10 5 2 13 -3 17 -10 7 -11 9 -11 9 0 0 10 4 9
16 -2 8 -9 20 -14 25 -11 5 4 9 1 9 -6 0 -8 5 -7 17 2 11 10 14 10 9 2 -4 -7
-2 -13 3 -13 22 0 26 -2 34 -15 4 -8 16 -12 27 -10 11 2 22 -1 26 -6 3 -6 12
-5 22 3 9 7 13 9 10 3 -3 -5 0 -15 7 -22 10 -9 15 -9 17 -1 3 7 13 5 30 -6 20
-13 27 -14 31 -4 4 9 6 8 6 -4 1 -11 9 -15 31 -14 21 2 30 -2 30 -13 0 -13 2
-13 9 -3 10 17 21 17 30 3 4 -6 19 -12 34 -13 15 -1 27 -6 27 -10 0 -4 5 -8
11 -8 5 0 8 4 5 8 -3 5 1 9 9 9 8 0 12 -4 9 -9 -5 -8 9 -12 33 -9 6 1 14 -3
18 -9 5 -8 12 -7 23 2 14 11 15 10 9 -7 -7 -20 -7 -20 8 -1 13 17 15 18 15 3
0 -9 5 -17 11 -17 5 0 7 5 3 11 -3 6 8 3 26 -6 18 -9 29 -12 26 -7 -7 12 20
10 31 -3 4 -4 2 -5 -6 0 -10 6 -12 4 -7 -4 5 -8 12 -9 20 -2 7 6 17 6 26 1 9
-6 17 -5 22 3 6 9 8 9 8 -1 0 -7 5 -10 10 -7 6 3 10 1 10 -4 0 -6 5 -11 11
-11 5 0 8 4 5 8 -3 5 1 9 9 9 8 0 12 -4 9 -9 -3 -4 2 -8 11 -8 10 0 14 5 9 13
-4 6 1 4 11 -5 17 -16 19 -16 32 0 12 16 13 16 6 -2 -5 -16 -2 -18 26 -14 17
3 34 1 37 -4 3 -4 14 -3 26 3 11 6 18 7 14 1 -3 -5 6 -12 19 -15 14 -2 28 0
32 6 4 6 1 7 -7 2 -9 -5 -11 -4 -6 4 5 7 12 9 19 3 7 -4 27 -8 45 -8 22 1 31
-3 27 -12 -3 -8 0 -10 8 -5 21 13 47 13 47 0 0 -8 3 -8 9 2 8 13 12 13 27 0
15 -12 17 -12 9 0 -6 11 -4 13 8 8 9 -3 19 -2 22 3 4 7 13 6 26 0 10 -6 19 -7
19 -3 0 4 5 2 11 -4 13 -13 42 -6 33 8 -3 5 2 6 10 3 9 -3 13 -10 10 -15 -3
-5 2 -6 10 -3 9 3 13 11 9 18 -4 6 1 4 12 -4 22 -18 18 -18 39 -1 9 8 16 10
15 5 -4 -23 2 -26 17 -8 8 10 13 13 9 7 -3 -7 -1 -13 4 -13 6 0 11 5 11 10 0
6 5 10 11 10 5 0 8 -4 4 -9 -3 -5 -1 -12 5 -16 5 -3 10 1 10 10 0 9 5 13 10
10 6 -4 18 -1 27 7 12 9 15 9 9 0 -5 -8 -1 -11 13 -9 11 2 24 6 27 10 4 4 12
7 18 7 6 0 4 -5 -4 -10 -12 -8 -10 -10 9 -10 17 0 22 4 17 16 -4 10 -2 13 7 7
19 -12 60 -15 53 -4 -6 9 0 9 39 1 23 -5 36 1 29 13 -6 10 -4 10 7 0 7 -7 17
-13 22 -13 4 0 5 6 1 13 -5 8 -2 8 9 -2 12 -9 17 -10 17 -2 0 7 4 10 9 7 5 -4
12 0 14 6 3 8 6 7 6 -4 1 -16 4 -16 36 -2 19 8 35 11 35 8 0 -4 8 0 17 7 14
12 16 12 8 0 -6 -11 -4 -13 9 -8 10 4 20 7 22 7 3 0 3 4 -1 9 -3 6 6 6 24 1
19 -5 36 -4 48 4 10 6 32 13 48 15 17 2 33 8 37 15 5 7 8 6 8 -3 0 -11 3 -12
11 -4 6 6 18 9 27 6 11 -5 13 -3 7 7 -6 10 -4 12 10 6 11 -4 22 -2 27 6 6 10
8 10 8 -1 0 -9 5 -7 18 6 9 10 13 12 7 4 -8 -12 -6 -13 8 -8 10 4 21 7 23 7 3
0 2 4 -1 10 -3 5 -1 10 4 10 6 0 11 -6 11 -12 0 -8 3 -9 8 -3 4 6 13 10 20 11
29 2 33 5 26 17 -5 8 -2 8 9 -2 12 -9 17 -10 17 -2 0 7 5 9 10 6 6 -3 10 -2
10 3 0 5 12 7 26 4 20 -4 25 -2 19 8 -6 10 -1 12 19 8 19 -4 26 -2 22 7 -3 8
2 11 15 8 11 -3 19 0 19 8 0 7 3 9 7 6 3 -4 12 -2 20 4 10 9 13 8 13 -2 0 -11
2 -11 9 -1 4 7 18 14 30 15 12 1 20 6 17 12 -2 7 2 12 10 12 7 0 10 -5 7 -11
-4 -6 0 -5 9 1 8 7 19 9 23 5 5 -4 5 -2 2 4 -4 7 0 15 9 18 8 3 13 2 9 -3 -6
-11 14 -9 33 2 7 5 10 13 7 18 -4 5 6 4 21 -1 25 -10 26 -9 13 7 -7 10 -9 15
-5 11 5 -4 16 -2 24 5 13 9 14 9 8 0 -12 -20 1 -15 25 10 12 12 19 16 15 10
-11 -19 5 -16 21 4 8 10 12 13 9 6 -5 -8 0 -8 19 0 14 7 25 16 25 20 0 5 5 5
10 2 6 -3 10 2 11 12 0 10 3 13 5 6 4 -8 17 -5 44 9 22 12 36 26 33 32 -3 6 0
5 8 -2 11 -10 17 -8 32 10 10 13 16 17 12 11 -4 -9 -1 -11 10 -7 9 4 14 12 11
19 -3 8 2 11 15 8 10 -3 19 0 19 6 0 6 7 8 17 4 12 -5 15 -2 11 9 -3 8 -1 15
5 16 32 3 49 10 57 23 5 7 17 14 27 14 10 0 17 5 16 12 -2 7 3 10 11 7 8 -3
24 5 36 18 13 13 20 16 16 8 -4 -8 0 -6 8 4 9 11 16 16 16 10 0 -5 3 -5 8 1 4
6 19 16 34 24 15 8 25 18 22 23 -3 4 2 8 10 8 8 0 24 10 36 22 11 12 20 18 20
13 0 -5 7 0 16 11 8 10 13 12 9 4 -4 -8 3 -4 14 10 14 17 21 20 21 10 1 -8 7
-1 15 15 7 17 14 27 14 22 2 -14 51 25 52 42 0 11 2 12 6 3 4 -9 10 -7 22 7
10 12 21 18 25 14 3 -3 6 1 6 10 0 11 8 17 22 17 12 0 18 3 15 7 -4 3 3 11 16
18 12 6 21 17 20 23 -1 6 11 16 27 23 15 7 26 17 24 21 -3 4 2 8 11 8 9 0 13
5 10 10 -3 5 1 10 10 10 9 0 19 9 22 19 3 13 10 18 21 14 10 -4 13 -2 8 5 -4
7 -3 12 1 12 5 0 18 7 29 16 10 8 13 13 7 9 -29 -14 -10 5 23 24 25 15 34 26
30 38 -5 13 -4 14 9 3 13 -11 14 -10 9 5 -4 10 -3 16 2 14 5 -3 25 10 44 30
19 19 30 31 23 27 -6 -3 -15 -2 -18 4 -4 6 -3 10 2 9 20 -3 34 2 28 11 -3 6
-1 10 5 10 18 0 42 29 34 41 -4 8 -3 9 4 5 7 -4 17 3 23 18 7 14 15 24 18 22
3 -2 17 8 31 22 14 14 17 20 8 13 -11 -8 -18 -9 -18 -3 0 6 9 14 20 17 11 3
23 18 26 32 5 18 9 21 15 11 6 -9 10 -3 15 20 5 24 9 30 15 20 7 -10 9 -9 9 5
0 9 5 17 11 17 6 0 9 7 6 14 -4 11 -1 13 11 9 9 -3 14 -3 11 1 -4 4 4 18 18
32 13 13 22 28 19 33 -3 5 2 15 11 22 14 12 16 12 8 0 -5 -10 -4 -12 4 -7 6 4
9 12 6 17 -4 5 1 12 9 15 9 3 13 10 10 16 -3 5 3 16 15 24 12 8 21 24 21 35 0
11 5 17 10 14 6 -3 10 1 10 10 0 8 7 18 15 21 8 4 12 10 9 15 -3 5 0 9 6 9 6
0 8 5 5 10 -3 6 -1 10 5 10 6 0 8 5 5 10 -3 6 1 13 10 16 10 4 14 13 10 22 -3
9 -3 13 1 9 4 -4 13 1 20 11 9 13 10 20 1 31 -9 11 -9 13 -1 8 7 -4 17 0 24 8
7 8 9 15 4 15 -4 0 1 6 12 14 10 8 16 17 12 21 -3 4 2 15 13 26 11 11 17 24
14 28 -2 5 2 12 11 15 9 3 14 12 11 19 -2 6 3 18 12 25 9 8 10 11 4 7 -9 -4
-11 -1 -7 9 3 9 11 13 17 9 6 -4 8 0 4 10 -4 12 -1 17 11 18 11 0 13 2 4 6
-10 4 -9 9 5 20 11 9 12 12 3 8 -8 -4 -7 0 4 9 10 8 16 22 13 30 -4 9 2 21 11
28 10 7 17 20 17 28 0 8 8 23 18 33 9 9 17 23 17 30 0 8 -4 7 -10 -3 -6 -9
-10 -10 -10 -3 0 7 8 17 18 22 9 6 13 11 8 11 -5 0 -1 10 10 22 10 12 14 18 8
15 -7 -4 -14 0 -17 7 -4 10 0 14 13 11 13 -3 17 1 13 11 -3 8 0 14 5 14 6 0 9
9 7 20 -2 11 1 20 6 20 6 0 7 4 4 10 -3 6 -1 10 6 10 8 0 7 5 -2 17 -8 9 -9
14 -3 10 13 -8 27 19 18 34 -3 5 0 9 5 9 6 0 10 6 8 13 -1 6 3 11 9 10 6 -1
11 4 11 12 0 7 -7 11 -16 8 -9 -2 -5 3 9 11 16 10 19 15 10 16 -12 0 -13 2 -1
9 9 6 10 10 2 16 -9 5 -9 10 0 21 6 7 15 12 18 9 4 -2 8 2 8 10 0 8 -5 11 -11
8 -6 -4 -5 1 3 10 7 9 11 24 7 32 -3 9 -2 13 4 10 9 -6 14 8 11 28 0 4 4 7 10
7 5 0 7 5 4 10 -4 6 -2 17 5 25 7 9 8 15 0 20 -5 3 -10 12 -10 18 0 7 4 6 10
-3 8 -12 10 -9 10 12 0 15 5 30 11 33 6 4 8 13 5 21 -3 7 -1 16 4 19 6 4 10
12 10 18 0 7 -4 6 -10 -3 -6 -9 -10 -10 -10 -3 0 6 7 18 15 27 18 18 20 30 3
20 -10 -6 -10 -5 -1 8 7 8 10 18 6 21 -3 4 0 7 8 8 8 0 6 4 -6 9 l-20 9 20 0
c17 1 17 3 5 11 -9 6 -11 10 -3 10 7 0 10 7 6 17 -5 12 -3 14 8 8 11 -7 11 -5
-1 10 -11 14 -12 17 -1 11 11 -7 13 -1 9 27 -2 20 -1 34 3 31 4 -2 9 3 12 10
3 8 1 17 -6 20 -9 3 -9 7 0 13 13 9 11 42 -3 66 -6 9 -4 9 8 -1 14 -11 16 -11
14 0 -1 7 -5 18 -9 25 -4 6 -2 13 4 15 14 5 19 71 5 80 -7 5 -7 8 2 8 7 0 10
5 7 10 -3 5 -1 10 5 10 8 0 8 6 0 20 -8 15 -8 20 2 20 6 0 3 7 -8 15 -18 14
-18 15 0 9 16 -6 17 -5 6 16 -8 15 -8 20 -1 16 6 -4 11 -2 11 3 0 6 -5 11 -11
11 -7 0 -4 11 6 26 14 22 15 28 4 35 -11 7 -11 11 -2 17 8 5 9 13 3 22 -5 8
-5 21 1 31 7 13 5 21 -8 29 -17 11 -17 11 0 6 9 -3 17 -1 17 4 0 6 -5 10 -11
10 -8 0 -7 6 2 17 11 13 11 17 1 20 -6 3 -9 10 -5 16 10 16 10 77 0 77 -4 0
-4 8 2 17 7 13 5 23 -7 38 -16 19 -16 19 1 5 17 -12 18 -12 15 6 -1 10 -7 23
-13 27 -6 6 -5 10 3 14 10 4 9 10 -4 30 -9 14 -11 22 -5 19 6 -4 11 -2 11 3 0
6 -5 11 -11 11 -8 0 -8 4 0 14 9 11 10 20 1 35 -8 16 -8 21 2 21 11 0 11 2 0
8 -8 5 -10 16 -6 27 5 13 4 16 -5 10 -10 -5 -11 -3 -4 11 8 16 10 58 4 67 -3
2 -12 55 -13 75 -1 6 -6 12 -11 12 -5 0 -4 7 3 15 10 12 10 15 0 15 -9 0 -10
3 -1 14 9 11 8 15 -6 20 -14 6 -15 9 -4 15 10 7 10 10 1 16 -9 6 -9 10 1 16
11 7 11 9 1 9 -7 0 -10 5 -7 10 3 6 1 10 -6 10 -9 0 -9 3 0 14 8 10 9 16 1 21
-5 3 -10 20 -10 36 0 22 -4 28 -12 23 -9 -5 -9 -2 1 9 9 12 10 17 2 17 -7 0
-9 4 -6 10 3 6 0 10 -7 10 -9 0 -9 3 2 10 9 6 11 10 3 10 -7 0 -10 7 -6 17 5
13 2 15 -13 10 -17 -6 -17 -6 -2 6 15 12 15 14 0 25 -9 7 -11 10 -4 7 6 -3 12
-2 12 3 0 6 -7 13 -15 16 -12 4 -14 10 -5 25 7 14 7 22 -1 27 -6 3 -9 14 -6
24 3 13 0 17 -10 13 -16 -6 -14 17 2 29 6 5 5 8 -4 8 -7 0 -11 6 -7 15 3 10
-1 15 -12 15 -15 0 -15 2 -2 10 8 5 10 10 4 10 -6 0 -11 6 -12 13 0 6 -3 23
-7 37 -4 14 -7 31 -7 38 -1 7 -7 11 -15 8 -11 -4 -11 -1 -3 14 7 14 7 20 0 20
-5 0 -10 9 -10 20 0 11 -6 20 -12 20 -9 0 -8 4 2 10 10 6 11 10 3 10 -7 0 -13
7 -13 15 0 8 -5 15 -11 15 -8 0 -8 4 0 14 8 9 8 15 2 18 -9 2 -17 27 -20 61
-1 4 -6 7 -12 7 -8 0 -7 -6 2 -17 13 -16 12 -17 -3 -4 -13 10 -15 18 -8 31 7
13 5 21 -5 30 -8 7 -12 17 -8 23 4 6 0 8 -9 5 -11 -5 -14 0 -12 18 1 13 -1 24
-6 24 -4 0 -11 7 -14 16 -3 8 -2 12 4 9 16 -10 12 0 -10 25 -11 12 -17 27 -14
31 3 5 0 9 -5 9 -6 0 -11 9 -11 21 0 15 -4 19 -16 15 -14 -5 -15 -4 -4 9 10
12 9 15 -5 15 -14 0 -15 3 -6 14 9 11 8 15 -4 20 -9 3 -14 10 -10 15 3 6 -5
20 -17 32 -13 12 -17 18 -10 14 11 -6 12 -3 2 14 -6 13 -16 19 -23 14 -7 -4
-5 2 3 13 8 10 11 16 6 12 -13 -11 -49 40 -42 58 3 8 2 12 -4 9 -6 -3 -10 -1
-10 5 0 6 -4 9 -8 6 -5 -3 -9 1 -9 9 0 8 5 12 11 9 6 -3 3 1 -6 9 -10 8 -15
17 -11 20 3 4 1 7 -5 7 -7 0 -12 10 -12 23 0 18 -2 19 -10 7 -8 -12 -10 -11
-10 8 0 14 -6 22 -17 22 -15 0 -16 2 -3 10 13 8 12 10 -2 10 -11 0 -18 8 -18
21 0 13 -4 18 -12 13 -7 -5 -9 -2 -5 9 3 9 0 18 -9 21 -8 3 -14 13 -14 21 0
10 -5 13 -12 9 -8 -5 -9 -2 -5 9 4 11 1 17 -8 17 -8 0 -15 9 -15 20 0 11 -7
20 -15 20 -8 0 -15 5 -15 11 0 5 6 7 13 4 6 -4 -4 8 -23 25 -19 17 -29 29 -22
25 25 -13 11 5 -15 19 -16 9 -21 16 -13 16 9 0 5 6 -10 15 -14 8 -19 14 -13
15 18 0 -18 40 -36 40 -8 0 -12 3 -8 6 3 3 -4 16 -17 28 -18 17 -18 18 -1 6
16 -12 15 -10 -4 12 -13 15 -28 25 -32 22 -5 -3 -9 5 -9 18 0 17 -2 20 -9 9
-7 -11 -10 -9 -13 10 -2 13 -9 23 -16 21 -6 -1 -11 3 -10 10 2 6 -7 17 -19 23
-13 7 -20 15 -16 18 3 4 1 7 -5 7 -7 0 -12 7 -12 16 0 9 -9 18 -20 21 -11 3
-17 10 -13 16 4 6 0 8 -10 4 -11 -4 -14 -2 -10 9 3 7 0 14 -7 14 -6 0 -8 5 -4
12 4 7 3 8 -4 4 -6 -3 -16 3 -22 14 -6 11 -15 18 -21 15 -5 -4 -9 0 -9 8 0 8
-7 18 -16 21 -8 3 -12 11 -8 17 4 8 3 9 -4 5 -7 -4 -12 -2 -12 4 0 7 -7 9 -16
6 -8 -3 -12 -2 -9 4 3 6 1 10 -5 10 -6 0 -8 4 -5 10 3 6 -1 7 -9 4 -9 -3 -16
-1 -16 6 0 15 -25 40 -40 40 -7 0 -10 6 -7 14 4 10 0 13 -14 11 -11 -2 -18 -1
-16 3 2 4 -4 15 -15 25 -10 9 -18 14 -18 10 0 -5 -5 0 -11 10 -6 9 -15 14 -21
11 -6 -4 -8 -3 -5 3 4 6 -1 17 -10 24 -14 12 -16 12 -9 -1 4 -8 1 -7 -8 4 -8
10 -20 15 -26 11 -6 -3 -10 -3 -9 2 4 23 -2 35 -16 30 -8 -4 -17 -1 -21 5 -5
7 -2 8 7 4 8 -4 5 0 -6 8 -11 9 -25 14 -32 12 -7 -3 -12 -2 -12 2 3 20 -3 32
-16 32 -8 0 -15 5 -15 10 0 6 -7 10 -16 10 -8 0 -12 5 -9 10 3 6 -1 10 -11 10
-9 0 -23 8 -31 18 -9 11 -12 12 -8 2 4 -8 -3 -4 -15 10 -12 14 -19 18 -15 10
4 -8 -5 -1 -20 15 -14 17 -24 25 -21 19 3 -6 -1 -11 -8 -11 -8 0 -12 6 -9 12
2 7 -3 15 -12 19 -11 4 -14 2 -9 -7 3 -6 -4 0 -17 14 -28 29 -66 59 -56 43 3
-6 0 -11 -8 -11 -8 0 -13 5 -12 11 1 6 -8 12 -21 14 -12 2 -20 8 -17 13 4 5
-1 9 -10 9 -10 0 -13 5 -9 13 5 7 0 6 -11 -3 -11 -9 -16 -10 -11 -2 4 7 1 12
-9 12 -9 0 -14 4 -11 9 3 4 -5 7 -19 6 -18 -2 -22 1 -18 13 4 9 2 13 -5 8 -6
-3 -14 -1 -17 5 -4 5 -14 8 -22 5 -8 -3 -11 -1 -8 4 3 6 -1 10 -10 10 -9 0
-14 4 -10 9 3 6 -4 8 -15 6 -11 -2 -20 1 -20 7 0 5 -7 7 -16 4 -8 -3 -12 -2
-9 4 3 6 -1 10 -9 10 -9 0 -16 5 -16 10 0 6 -9 10 -20 10 -11 0 -20 5 -20 11
0 5 -4 8 -9 4 -5 -3 -16 1 -23 9 -10 9 -20 11 -31 4 -13 -7 -15 -5 -11 7 5 11
2 14 -12 8 -12 -5 -15 -3 -9 6 6 10 2 11 -15 6 -17 -5 -21 -4 -15 6 6 9 2 11
-13 7 -12 -4 -20 -3 -17 2 3 4 -2 11 -11 14 -8 3 -12 2 -9 -4 3 -6 -1 -7 -9
-4 -9 3 -14 10 -11 14 6 9 -25 23 -33 15 -3 -3 1 -5 8 -5 7 0 10 -3 7 -7 -4
-3 -17 2 -29 13 -14 13 -19 14 -14 4 5 -9 2 -9 -7 2 -11 14 -16 15 -26 5 -10
-9 -11 -8 -5 7 5 13 4 17 -4 12 -6 -3 -13 -2 -17 4 -4 6 -10 8 -15 5 -5 -3
-11 -1 -15 5 -3 5 -19 10 -35 10 -15 0 -30 4 -32 10 -1 5 -15 11 -30 12 -16 1
-28 6 -28 10 0 4 -9 5 -20 3 -11 -2 -20 0 -20 5 0 5 -7 6 -17 3 -9 -4 -14 -2
-10 3 5 9 -7 13 -50 16 -7 1 -13 6 -13 11 0 5 -6 4 -14 -2 -10 -8 -16 -8 -25
3 -12 15 -28 16 -48 3 -9 -5 -11 -3 -7 6 3 8 -2 17 -11 21 -9 3 -14 2 -11 -3
3 -5 -1 -11 -9 -14 -9 -4 -12 -1 -9 8 4 10 0 13 -15 10 -12 -2 -21 0 -21 5 0
4 -13 7 -30 6 -16 -1 -30 1 -30 5 0 4 -9 5 -20 2 -11 -3 -20 -1 -20 5 0 5 -7
12 -14 15 -10 4 -13 1 -10 -7 3 -7 -2 -13 -10 -13 -8 0 -13 4 -10 9 5 7 -3 10
-22 7 -4 0 -11 5 -15 13 -7 11 -9 11 -9 -1 0 -11 -3 -11 -16 0 -13 10 -17 10
-25 -2 -7 -11 -9 -11 -9 0 0 9 -9 12 -29 9 -17 -2 -28 -1 -25 3 2 4 -17 6 -43
4 -30 -2 -42 0 -32 6 10 6 3 9 -23 9 -24 0 -38 -5 -39 -12 0 -7 -4 -4 -9 7 -5
12 -9 14 -9 6 -1 -11 -4 -10 -14 4 -11 14 -16 15 -22 5 -6 -9 -4 -11 5 -5 9 6
11 4 6 -4 -6 -9 -12 -8 -26 4 -12 11 -20 13 -25 6 -3 -6 -11 -11 -16 -11 -6 0
-7 6 -3 13 6 9 4 9 -7 1 -16 -12 -29 -12 -48 0 -10 7 -12 6 -6 -3 4 -7 -5 -5
-21 5 -15 11 -25 13 -20 6 7 -12 -14 -11 -61 3 -7 2 -15 0 -17 -4 -3 -5 -17
-6 -32 -3 -16 3 -29 -1 -35 -9 -7 -11 -9 -10 -9 4 0 9 -5 17 -11 17 -6 0 -8
-7 -5 -16 5 -14 4 -15 -9 -4 -9 7 -18 10 -22 7 -3 -4 -15 -2 -26 4 -13 7 -17
7 -13 1 3 -6 2 -13 -4 -17 -5 -3 -10 -1 -10 5 0 6 -8 10 -17 8 -10 -1 -24 1
-30 5 -9 5 -13 2 -13 -9 0 -17 -1 -17 -13 0 -12 17 -15 17 -29 2z m-1131 -258
c-3 -8 -6 -5 -6 6 -1 11 2 17 5 13 3 -3 4 -12 1 -19z m-807 -422 c0 -2 -7 -7
-16 -10 -8 -3 -12 -2 -9 4 6 10 25 14 25 6z m-269 -5923 c13 -16 12 -17 -3 -4
-17 13 -22 21 -14 21 2 0 10 -8 17 -17z m339 -239 c0 -8 -19 -13 -24 -6 -3 5
1 9 9 9 8 0 15 -2 15 -3z"/>
</g>
</svg>
